<svg width="94" height="54" viewBox="0 0 94 54" fill="none" xmlns="http://www.w3.org/2000/svg">
<rect width="93.45" height="53.27" fill="white"/>
<g clip-path="url(#clip0_3822_9793)">
<path d="M47 27C52.5228 27 57 31.4772 57 37C57 42.1127 53.1629 46.3287 48.2115 46.9267V40.0558L50.9167 40.0558L51.4779 37H48.2115V35.9192C48.2115 35.1118 48.3699 34.5528 48.7332 34.1957C49.0966 33.8386 49.6649 33.6833 50.4848 33.6833C50.6923 33.6833 50.8833 33.6853 51.0527 33.6895C51.2992 33.6955 51.5002 33.7058 51.64 33.7206V30.9504C51.5841 30.9349 51.5181 30.9193 51.4442 30.9041C51.2767 30.8694 51.0685 30.836 50.8447 30.8067C50.377 30.7454 49.8411 30.7019 49.4662 30.7019C47.952 30.7019 46.8077 31.0259 46.0089 31.6968C45.0449 32.5066 44.5842 33.8218 44.5842 35.6832V37H42.5222V40.0558H44.5842V46.7055C40.2286 45.6249 37 41.6898 37 37C37 31.4772 41.4772 27 47 27Z" fill="black"/>
</g>
<circle cx="47" cy="37" r="13.5" stroke="black"/>
<circle cx="35.6738" cy="37.0002" r="0.763636" fill="black"/>
<circle cx="58.6308" cy="37.0002" r="0.763636" fill="black"/>
<path d="M6.364 13.012H5.824C5.608 13.012 5.43 12.944 5.29 12.808C5.15 12.672 5.08 12.474 5.08 12.214V4.828L5.158 4.756H5.65C5.91 4.756 6.094 4.822 6.202 4.954C6.31 5.086 6.364 5.29 6.364 5.566V13.012ZM9.814 11.896C9.814 12.328 9.748 12.622 9.616 12.778C9.484 12.934 9.264 13.012 8.956 13.012H5.824L5.164 12.076C5.536 12.012 5.924 11.966 6.328 11.938C6.732 11.91 7.1 11.896 7.432 11.896H9.814ZM11.2686 4.804C11.3606 4.788 11.4646 4.776 11.5806 4.768C11.7006 4.76 11.8066 4.756 11.8986 4.756C12.0026 4.756 12.1106 4.76 12.2226 4.768C12.3386 4.776 12.4466 4.788 12.5466 4.804V13C12.4466 13.016 12.3386 13.028 12.2226 13.036C12.1106 13.044 12.0026 13.048 11.8986 13.048C11.8066 13.048 11.7006 13.044 11.5806 13.036C11.4646 13.028 11.3606 13.016 11.2686 13V4.804ZM14.7597 4.882L14.8377 4.804H16.0077V5.854C16.0077 6.022 16.0097 6.16 16.0137 6.268C16.0177 6.372 16.0197 6.506 16.0197 6.67V11.344C16.0197 11.452 16.0177 11.552 16.0137 11.644C16.0097 11.736 16.0077 11.838 16.0077 11.95V13.012H15.4917C15.2677 13.012 15.0897 12.942 14.9577 12.802C14.8257 12.662 14.7597 12.468 14.7597 12.22V4.882ZM19.0197 8.332C19.0397 8.416 19.0537 8.508 19.0617 8.608C19.0737 8.708 19.0797 8.792 19.0797 8.86C19.0797 8.932 19.0737 9.018 19.0617 9.118C19.0537 9.214 19.0397 9.306 19.0197 9.394H16.7637C16.6717 9.394 16.5557 9.394 16.4157 9.394C16.2757 9.39 16.1297 9.388 15.9777 9.388C15.8297 9.384 15.6957 9.38 15.5757 9.376V8.344C15.6957 8.344 15.8297 8.344 15.9777 8.344C16.1297 8.34 16.2757 8.338 16.4157 8.338C16.5557 8.334 16.6717 8.332 16.7637 8.332H19.0197ZM19.6677 4.804C19.6877 4.9 19.6997 4.992 19.7037 5.08C19.7077 5.164 19.7097 5.242 19.7097 5.314C19.7097 5.386 19.7017 5.476 19.6857 5.584C19.6697 5.688 19.6437 5.788 19.6077 5.884H16.7637C16.6717 5.884 16.5557 5.884 16.4157 5.884C16.2757 5.884 16.1297 5.884 15.9777 5.884C15.8297 5.88 15.6957 5.876 15.5757 5.872V4.804H19.6677ZM19.9017 11.926C19.9017 12.314 19.8417 12.592 19.7217 12.76C19.6017 12.928 19.3797 13.012 19.0557 13.012H15.5757V11.98C15.7677 11.968 15.9577 11.956 16.1457 11.944C16.3337 11.932 16.5517 11.926 16.7997 11.926H19.9017ZM17.8077 2.344L19.1517 3.616C19.1077 3.752 19.0297 3.868 18.9177 3.964C18.8057 4.06 18.7037 4.124 18.6117 4.156L17.2617 3.256L15.9177 4.156C15.8217 4.124 15.7177 4.06 15.6057 3.964C15.4937 3.868 15.4137 3.752 15.3657 3.616L16.7157 2.344C16.8797 2.312 17.0617 2.296 17.2617 2.296C17.4617 2.296 17.6437 2.312 17.8077 2.344ZM21.5626 4.816C21.6626 4.796 21.7906 4.782 21.9466 4.774C22.1026 4.762 22.2286 4.756 22.3246 4.756C22.4246 4.756 22.5446 4.76 22.6846 4.768C22.8246 4.776 22.9586 4.788 23.0866 4.804L22.7506 6.292L22.6546 6.31C22.6706 6.59 22.6846 6.902 22.6966 7.246C22.7126 7.586 22.7246 7.932 22.7326 8.284C22.7446 8.632 22.7506 8.954 22.7506 9.25V13C22.6426 13.016 22.5386 13.028 22.4386 13.036C22.3386 13.044 22.2466 13.048 22.1626 13.048C22.0826 13.048 21.9866 13.044 21.8746 13.036C21.7666 13.028 21.6626 13.016 21.5626 13V4.816ZM23.4586 7.966C23.3146 7.67 23.1786 7.382 23.0506 7.102C22.9226 6.822 22.8026 6.554 22.6906 6.298L22.0906 5.578L23.0866 4.804L25.6246 9.832C25.7766 10.148 25.9186 10.456 26.0506 10.756C26.1866 11.052 26.3126 11.322 26.4286 11.566L27.0586 12.232L26.0146 13L23.4586 7.966ZM27.5446 4.822V12.988C27.4446 13.008 27.3206 13.022 27.1726 13.03C27.0246 13.042 26.8926 13.048 26.7766 13.048C26.6566 13.048 26.5306 13.044 26.3986 13.036C26.2666 13.028 26.1386 13.016 26.0146 13L26.3626 11.572L26.4646 11.56C26.4446 11.24 26.4266 10.9 26.4106 10.54C26.3986 10.176 26.3886 9.82 26.3806 9.472C26.3726 9.124 26.3686 8.812 26.3686 8.536V5.548C26.3686 5.268 26.4166 5.066 26.5126 4.942C26.6126 4.818 26.7926 4.756 27.0526 4.756H27.4726L27.5446 4.822ZM34.3055 9.316C34.2655 9.316 34.1995 9.316 34.1075 9.316C34.0155 9.312 33.9215 9.31 33.8255 9.31C33.7295 9.306 33.6615 9.304 33.6215 9.304C33.5015 9.304 33.3755 9.306 33.2435 9.31C33.1155 9.314 32.9895 9.316 32.8655 9.316V8.218C32.9895 8.218 33.1155 8.22 33.2435 8.224C33.3755 8.228 33.5015 8.23 33.6215 8.23C33.6615 8.23 33.7295 8.23 33.8255 8.23C33.9215 8.226 34.0155 8.224 34.1075 8.224C34.1995 8.22 34.2655 8.218 34.3055 8.218H36.3275C36.3675 8.218 36.4335 8.22 36.5255 8.224C36.6215 8.224 36.7155 8.226 36.8075 8.23C36.9035 8.23 36.9715 8.23 37.0115 8.23C37.1355 8.23 37.2615 8.228 37.3895 8.224C37.5175 8.22 37.6435 8.218 37.7675 8.218V9.316C37.6435 9.316 37.5175 9.314 37.3895 9.31C37.2615 9.306 37.1355 9.304 37.0115 9.304C36.9715 9.304 36.9035 9.306 36.8075 9.31C36.7155 9.31 36.6215 9.312 36.5255 9.316C36.4335 9.316 36.3675 9.316 36.3275 9.316H34.3055ZM33.6335 13C33.5375 13.016 33.4315 13.028 33.3155 13.036C33.1995 13.044 33.0895 13.048 32.9855 13.048C32.8935 13.048 32.7895 13.044 32.6735 13.036C32.5575 13.028 32.4515 13.016 32.3555 13V4.804C32.4515 4.788 32.5575 4.776 32.6735 4.768C32.7895 4.76 32.8935 4.756 32.9855 4.756C33.0895 4.756 33.1995 4.76 33.3155 4.768C33.4315 4.776 33.5375 4.788 33.6335 4.804V7.342C33.6335 7.51 33.6315 7.66 33.6275 7.792C33.6235 7.924 33.6215 8.07 33.6215 8.23V9.304C33.6215 9.464 33.6235 9.61 33.6275 9.742C33.6315 9.874 33.6335 10.024 33.6335 10.192V13ZM36.9995 10.192C36.9995 10.024 37.0015 9.874 37.0055 9.742C37.0095 9.61 37.0115 9.464 37.0115 9.304V8.23C37.0115 8.07 37.0095 7.924 37.0055 7.792C37.0015 7.66 36.9995 7.51 36.9995 7.342V4.804C37.0955 4.788 37.1995 4.776 37.3115 4.768C37.4275 4.76 37.5335 4.756 37.6295 4.756C37.7255 4.756 37.8315 4.76 37.9475 4.768C38.0675 4.776 38.1775 4.788 38.2775 4.804V13C38.1735 13.016 38.0655 13.028 37.9535 13.036C37.8455 13.044 37.7395 13.048 37.6355 13.048C37.5355 13.048 37.4275 13.044 37.3115 13.036C37.1995 13.028 37.0955 13.016 36.9995 13V10.192ZM40.4472 4.882L40.5252 4.804H41.6952V5.854C41.6952 6.022 41.6972 6.16 41.7012 6.268C41.7052 6.372 41.7072 6.506 41.7072 6.67V11.344C41.7072 11.452 41.7052 11.552 41.7012 11.644C41.6972 11.736 41.6952 11.838 41.6952 11.95V13.012H41.1792C40.9552 13.012 40.7772 12.942 40.6452 12.802C40.5132 12.662 40.4472 12.468 40.4472 12.22V4.882ZM44.7072 8.332C44.7272 8.416 44.7412 8.508 44.7492 8.608C44.7612 8.708 44.7672 8.792 44.7672 8.86C44.7672 8.932 44.7612 9.018 44.7492 9.118C44.7412 9.214 44.7272 9.306 44.7072 9.394H42.4512C42.3592 9.394 42.2432 9.394 42.1032 9.394C41.9632 9.39 41.8172 9.388 41.6652 9.388C41.5172 9.384 41.3832 9.38 41.2632 9.376V8.344C41.3832 8.344 41.5172 8.344 41.6652 8.344C41.8172 8.34 41.9632 8.338 42.1032 8.338C42.2432 8.334 42.3592 8.332 42.4512 8.332H44.7072ZM45.3552 4.804C45.3752 4.9 45.3872 4.992 45.3912 5.08C45.3952 5.164 45.3972 5.242 45.3972 5.314C45.3972 5.386 45.3892 5.476 45.3732 5.584C45.3572 5.688 45.3312 5.788 45.2952 5.884H42.4512C42.3592 5.884 42.2432 5.884 42.1032 5.884C41.9632 5.884 41.8172 5.884 41.6652 5.884C41.5172 5.88 41.3832 5.876 41.2632 5.872V4.804H45.3552ZM45.5892 11.926C45.5892 12.314 45.5292 12.592 45.4092 12.76C45.2892 12.928 45.0672 13.012 44.7432 13.012H41.2632V11.98C41.4552 11.968 41.6452 11.956 41.8332 11.944C42.0212 11.932 42.2392 11.926 42.4872 11.926H45.5892ZM42.2952 14.404C42.2952 14.2 42.3312 14.02 42.4032 13.864C42.4712 13.824 42.5692 13.79 42.6972 13.762C42.8252 13.738 42.9472 13.726 43.0632 13.726C43.1752 13.726 43.2972 13.738 43.4292 13.762C43.5652 13.79 43.6632 13.824 43.7232 13.864C43.7952 14.02 43.8312 14.2 43.8312 14.404C43.8312 14.488 43.8212 14.58 43.8012 14.68C43.7852 14.78 43.7592 14.866 43.7232 14.938C43.6592 14.982 43.5612 15.018 43.4292 15.046C43.2972 15.074 43.1752 15.088 43.0632 15.088C42.9472 15.088 42.8252 15.074 42.6972 15.046C42.5732 15.018 42.4752 14.982 42.4032 14.938C42.3312 14.786 42.2952 14.608 42.2952 14.404ZM43.4952 2.344L44.8392 3.616C44.7952 3.752 44.7172 3.868 44.6052 3.964C44.4932 4.06 44.3912 4.124 44.2992 4.156L42.9492 3.256L41.6052 4.156C41.5092 4.124 41.4052 4.06 41.2932 3.964C41.1812 3.868 41.1012 3.752 41.0532 3.616L42.4032 2.344C42.5672 2.312 42.7492 2.296 42.9492 2.296C43.1492 2.296 43.3312 2.312 43.4952 2.344ZM54.3268 7.636C54.3268 7.336 54.2768 7.036 54.1768 6.736C54.0808 6.432 53.9108 6.182 53.6668 5.986C53.4228 5.786 53.0848 5.686 52.6528 5.686C52.0208 5.686 51.5428 5.962 51.2188 6.514C50.8988 7.066 50.7388 7.876 50.7388 8.944C50.7388 9.936 50.9148 10.7 51.2668 11.236C51.6188 11.772 52.1048 12.04 52.7248 12.04C53.0968 12.04 53.4608 11.962 53.8168 11.806C54.1728 11.646 54.5228 11.42 54.8668 11.128C55.0068 11.22 55.1388 11.344 55.2628 11.5C55.3868 11.656 55.4688 11.808 55.5088 11.956C55.2848 12.176 55.0188 12.378 54.7108 12.562C54.4028 12.742 54.0608 12.886 53.6848 12.994C53.3128 13.102 52.9208 13.156 52.5088 13.156C51.9368 13.156 51.4508 13.038 51.0508 12.802C50.6548 12.566 50.3348 12.248 50.0908 11.848C49.8468 11.444 49.6688 10.992 49.5568 10.492C49.4488 9.988 49.3948 9.47 49.3948 8.938C49.3948 7.946 49.5448 7.134 49.8448 6.502C50.1488 5.866 50.5488 5.398 51.0448 5.098C51.5448 4.798 52.0908 4.648 52.6828 4.648C53.2748 4.648 53.7868 4.758 54.2188 4.978C54.6508 5.198 54.9848 5.486 55.2208 5.842C55.4568 6.198 55.5748 6.58 55.5748 6.988C55.5748 7.204 55.5188 7.38 55.4068 7.516C55.2948 7.648 55.1088 7.714 54.8488 7.714C54.7528 7.714 54.6648 7.708 54.5848 7.696C54.5088 7.68 54.4228 7.66 54.3268 7.636ZM59.079 9.316C59.039 9.316 58.973 9.316 58.881 9.316C58.789 9.312 58.695 9.31 58.599 9.31C58.503 9.306 58.435 9.304 58.395 9.304C58.275 9.304 58.149 9.306 58.017 9.31C57.889 9.314 57.763 9.316 57.639 9.316V8.218C57.763 8.218 57.889 8.22 58.017 8.224C58.149 8.228 58.275 8.23 58.395 8.23C58.435 8.23 58.503 8.23 58.599 8.23C58.695 8.226 58.789 8.224 58.881 8.224C58.973 8.22 59.039 8.218 59.079 8.218H61.101C61.141 8.218 61.207 8.22 61.299 8.224C61.395 8.224 61.489 8.226 61.581 8.23C61.677 8.23 61.745 8.23 61.785 8.23C61.909 8.23 62.035 8.228 62.163 8.224C62.291 8.22 62.417 8.218 62.541 8.218V9.316C62.417 9.316 62.291 9.314 62.163 9.31C62.035 9.306 61.909 9.304 61.785 9.304C61.745 9.304 61.677 9.306 61.581 9.31C61.489 9.31 61.395 9.312 61.299 9.316C61.207 9.316 61.141 9.316 61.101 9.316H59.079ZM58.407 13C58.311 13.016 58.205 13.028 58.089 13.036C57.973 13.044 57.863 13.048 57.759 13.048C57.667 13.048 57.563 13.044 57.447 13.036C57.331 13.028 57.225 13.016 57.129 13V4.804C57.225 4.788 57.331 4.776 57.447 4.768C57.563 4.76 57.667 4.756 57.759 4.756C57.863 4.756 57.973 4.76 58.089 4.768C58.205 4.776 58.311 4.788 58.407 4.804V7.342C58.407 7.51 58.405 7.66 58.401 7.792C58.397 7.924 58.395 8.07 58.395 8.23V9.304C58.395 9.464 58.397 9.61 58.401 9.742C58.405 9.874 58.407 10.024 58.407 10.192V13ZM61.773 10.192C61.773 10.024 61.775 9.874 61.779 9.742C61.783 9.61 61.785 9.464 61.785 9.304V8.23C61.785 8.07 61.783 7.924 61.779 7.792C61.775 7.66 61.773 7.51 61.773 7.342V4.804C61.869 4.788 61.973 4.776 62.085 4.768C62.201 4.76 62.307 4.756 62.403 4.756C62.499 4.756 62.605 4.76 62.721 4.768C62.841 4.776 62.951 4.788 63.051 4.804V13C62.947 13.016 62.839 13.028 62.727 13.036C62.619 13.044 62.513 13.048 62.409 13.048C62.309 13.048 62.201 13.044 62.085 13.036C61.973 13.028 61.869 13.016 61.773 13V10.192ZM71.1846 10.12C71.1846 10.784 71.0586 11.342 70.8066 11.794C70.5586 12.242 70.2066 12.582 69.7506 12.814C69.2946 13.042 68.7606 13.156 68.1486 13.156C67.5366 13.156 67.0046 13.042 66.5526 12.814C66.1006 12.582 65.7486 12.242 65.4966 11.794C65.2486 11.342 65.1246 10.784 65.1246 10.12V4.828L65.1966 4.756H65.6886C65.9486 4.756 66.1326 4.822 66.2406 4.954C66.3486 5.086 66.4026 5.29 66.4026 5.566V10.12C66.4026 10.776 66.5506 11.274 66.8466 11.614C67.1426 11.954 67.5766 12.124 68.1486 12.124C68.7286 12.124 69.1666 11.954 69.4626 11.614C69.7586 11.274 69.9066 10.776 69.9066 10.12V4.804C69.9986 4.788 70.1006 4.776 70.2126 4.768C70.3286 4.76 70.4346 4.756 70.5306 4.756C70.6266 4.756 70.7346 4.76 70.8546 4.768C70.9786 4.776 71.0886 4.788 71.1846 4.804V10.12ZM69.3666 2.17C69.4466 2.23 69.5246 2.314 69.6006 2.422C69.6806 2.53 69.7486 2.652 69.8046 2.788C69.8606 2.92 69.8986 3.054 69.9186 3.19L67.3026 4.258C67.2066 4.198 67.1246 4.104 67.0566 3.976C66.9886 3.848 66.9466 3.728 66.9306 3.616L69.3666 2.17ZM81.2787 7.216C81.2787 7.584 81.2107 7.916 81.0747 8.212C80.9387 8.508 80.7547 8.758 80.5227 8.962C80.2907 9.162 80.0307 9.308 79.7427 9.4C79.9387 9.468 80.1067 9.596 80.2467 9.784C80.3907 9.972 80.5047 10.184 80.5887 10.42L81.1227 11.824C81.2107 12.06 81.2947 12.242 81.3747 12.37C81.4547 12.498 81.5487 12.604 81.6567 12.688C81.5727 12.812 81.4467 12.91 81.2787 12.982C81.1147 13.05 80.9527 13.084 80.7927 13.084C80.5527 13.084 80.3767 13.018 80.2647 12.886C80.1527 12.754 80.0487 12.558 79.9527 12.298L79.3527 10.678C79.2527 10.402 79.1187 10.172 78.9507 9.988C78.7827 9.8 78.5127 9.706 78.1407 9.706H76.6407V8.704C76.8167 8.696 77.0187 8.69 77.2467 8.686C77.4747 8.678 77.6987 8.672 77.9187 8.668C78.1427 8.664 78.3327 8.662 78.4887 8.662C78.8807 8.662 79.1827 8.59 79.3947 8.446C79.6067 8.302 79.7527 8.12 79.8327 7.9C79.9127 7.676 79.9527 7.448 79.9527 7.216C79.9527 6.972 79.9127 6.74 79.8327 6.52C79.7527 6.3 79.6067 6.12 79.3947 5.98C79.1827 5.836 78.8807 5.764 78.4887 5.764C78.3727 5.764 78.2367 5.764 78.0807 5.764C77.9287 5.764 77.7707 5.764 77.6067 5.764C77.4467 5.76 77.2987 5.756 77.1627 5.752V13C77.0627 13.016 76.9547 13.028 76.8387 13.036C76.7267 13.044 76.6207 13.048 76.5207 13.048C76.4247 13.048 76.3187 13.044 76.2027 13.036C76.0907 13.028 75.9867 13.016 75.8907 13V4.87L75.9687 4.798C76.4207 4.786 76.8627 4.776 77.2947 4.768C77.7267 4.76 78.1467 4.756 78.5547 4.756C79.1107 4.756 79.5927 4.85 80.0007 5.038C80.4087 5.226 80.7227 5.504 80.9427 5.872C81.1667 6.236 81.2787 6.684 81.2787 7.216ZM83.0917 4.882L83.1697 4.804H84.3397V5.854C84.3397 6.022 84.3417 6.16 84.3457 6.268C84.3497 6.372 84.3517 6.506 84.3517 6.67V11.344C84.3517 11.452 84.3497 11.552 84.3457 11.644C84.3417 11.736 84.3397 11.838 84.3397 11.95V13.012H83.8237C83.5997 13.012 83.4217 12.942 83.2897 12.802C83.1577 12.662 83.0917 12.468 83.0917 12.22V4.882ZM87.3517 8.332C87.3717 8.416 87.3857 8.508 87.3937 8.608C87.4057 8.708 87.4117 8.792 87.4117 8.86C87.4117 8.932 87.4057 9.018 87.3937 9.118C87.3857 9.214 87.3717 9.306 87.3517 9.394H85.0957C85.0037 9.394 84.8877 9.394 84.7477 9.394C84.6077 9.39 84.4617 9.388 84.3097 9.388C84.1617 9.384 84.0277 9.38 83.9077 9.376V8.344C84.0277 8.344 84.1617 8.344 84.3097 8.344C84.4617 8.34 84.6077 8.338 84.7477 8.338C84.8877 8.334 85.0037 8.332 85.0957 8.332H87.3517ZM87.9997 4.804C88.0197 4.9 88.0317 4.992 88.0357 5.08C88.0397 5.164 88.0417 5.242 88.0417 5.314C88.0417 5.386 88.0337 5.476 88.0177 5.584C88.0017 5.688 87.9757 5.788 87.9397 5.884H85.0957C85.0037 5.884 84.8877 5.884 84.7477 5.884C84.6077 5.884 84.4617 5.884 84.3097 5.884C84.1617 5.88 84.0277 5.876 83.9077 5.872V4.804H87.9997ZM88.2337 11.926C88.2337 12.314 88.1737 12.592 88.0537 12.76C87.9337 12.928 87.7117 13.012 87.3877 13.012H83.9077V11.98C84.0997 11.968 84.2897 11.956 84.4777 11.944C84.6657 11.932 84.8837 11.926 85.1317 11.926H88.2337ZM86.1217 2.434L87.4597 3.61C87.4197 3.738 87.3477 3.852 87.2437 3.952C87.1437 4.052 87.0457 4.12 86.9497 4.156L85.5937 3.262L84.2377 4.156C84.1377 4.12 84.0357 4.052 83.9317 3.952C83.8277 3.852 83.7577 3.738 83.7217 3.61L85.0597 2.434C85.2237 2.402 85.4017 2.386 85.5937 2.386C85.7817 2.386 85.9577 2.402 86.1217 2.434ZM86.6377 1.954C86.8337 1.882 86.9897 1.798 87.1057 1.702C87.2257 1.602 87.2857 1.486 87.2857 1.354C87.2857 1.254 87.2477 1.172 87.1717 1.108C87.0957 1.044 86.9917 1.012 86.8597 1.012C86.7517 1.012 86.6477 1.03 86.5477 1.066C86.4477 1.102 86.3497 1.144 86.2537 1.192C86.1777 1.112 86.1177 1.016 86.0737 0.904C86.0297 0.791999 86.0077 0.679999 86.0077 0.568C86.1317 0.492 86.2897 0.421999 86.4817 0.357999C86.6777 0.293999 86.8837 0.261999 87.0997 0.261999C87.4557 0.261999 87.7337 0.353999 87.9337 0.537999C88.1377 0.721999 88.2397 0.949999 88.2397 1.222C88.2397 1.53 88.1157 1.8 87.8677 2.032C87.6237 2.264 87.3177 2.436 86.9497 2.548C86.8537 2.488 86.7797 2.402 86.7277 2.29C86.6757 2.178 86.6457 2.066 86.6377 1.954Z" fill="#3F3F3F"/>
<defs>
<clipPath id="clip0_3822_9793">
<rect width="20" height="20" fill="white" transform="translate(37 27)"/>
</clipPath>
</defs>
</svg>
