<svg width="94" height="54" viewBox="0 0 94 54" fill="none" xmlns="http://www.w3.org/2000/svg">
<rect width="93.45" height="53.27" fill="white"/>
<g clip-path="url(#clip0_3822_9800)">
<path d="M47 27C52.5228 27 57 31.4772 57 37C57 42.1127 53.1629 46.3287 48.2115 46.9267V40.0558L50.9167 40.0558L51.4779 37H48.2115V35.9192C48.2115 35.1118 48.3699 34.5528 48.7332 34.1957C49.0966 33.8386 49.6649 33.6833 50.4848 33.6833C50.6923 33.6833 50.8833 33.6853 51.0527 33.6895C51.2992 33.6955 51.5002 33.7058 51.64 33.7206V30.9504C51.5841 30.9349 51.5181 30.9193 51.4442 30.9041C51.2767 30.8694 51.0685 30.836 50.8447 30.8067C50.377 30.7454 49.8411 30.7019 49.4662 30.7019C47.952 30.7019 46.8077 31.0259 46.0089 31.6968C45.0449 32.5066 44.5842 33.8218 44.5842 35.6832V37H42.5222V40.0558H44.5842V46.7055C40.2286 45.6249 37 41.6898 37 37C37 31.4772 41.4772 27 47 27Z" fill="black"/>
</g>
<circle cx="47" cy="37" r="13.5" stroke="black"/>
<circle cx="35.6738" cy="37.0002" r="0.763636" fill="black"/>
<circle cx="58.6308" cy="37.0002" r="0.763636" fill="black"/>
<path d="M6.364 13.012H5.824C5.608 13.012 5.43 12.944 5.29 12.808C5.15 12.672 5.08 12.474 5.08 12.214V4.828L5.158 4.756H5.65C5.91 4.756 6.094 4.822 6.202 4.954C6.31 5.086 6.364 5.29 6.364 5.566V13.012ZM9.814 11.896C9.814 12.328 9.748 12.622 9.616 12.778C9.484 12.934 9.264 13.012 8.956 13.012H5.824L5.164 12.076C5.536 12.012 5.924 11.966 6.328 11.938C6.732 11.91 7.1 11.896 7.432 11.896H9.814ZM11.2686 4.804C11.3606 4.788 11.4646 4.776 11.5806 4.768C11.7006 4.76 11.8066 4.756 11.8986 4.756C12.0026 4.756 12.1106 4.76 12.2226 4.768C12.3386 4.776 12.4466 4.788 12.5466 4.804V13C12.4466 13.016 12.3386 13.028 12.2226 13.036C12.1106 13.044 12.0026 13.048 11.8986 13.048C11.8066 13.048 11.7006 13.044 11.5806 13.036C11.4646 13.028 11.3606 13.016 11.2686 13V4.804ZM14.7597 4.882L14.8377 4.804H16.0077V5.854C16.0077 6.022 16.0097 6.16 16.0137 6.268C16.0177 6.372 16.0197 6.506 16.0197 6.67V11.344C16.0197 11.452 16.0177 11.552 16.0137 11.644C16.0097 11.736 16.0077 11.838 16.0077 11.95V13.012H15.4917C15.2677 13.012 15.0897 12.942 14.9577 12.802C14.8257 12.662 14.7597 12.468 14.7597 12.22V4.882ZM19.0197 8.332C19.0397 8.416 19.0537 8.508 19.0617 8.608C19.0737 8.708 19.0797 8.792 19.0797 8.86C19.0797 8.932 19.0737 9.018 19.0617 9.118C19.0537 9.214 19.0397 9.306 19.0197 9.394H16.7637C16.6717 9.394 16.5557 9.394 16.4157 9.394C16.2757 9.39 16.1297 9.388 15.9777 9.388C15.8297 9.384 15.6957 9.38 15.5757 9.376V8.344C15.6957 8.344 15.8297 8.344 15.9777 8.344C16.1297 8.34 16.2757 8.338 16.4157 8.338C16.5557 8.334 16.6717 8.332 16.7637 8.332H19.0197ZM19.6677 4.804C19.6877 4.9 19.6997 4.992 19.7037 5.08C19.7077 5.164 19.7097 5.242 19.7097 5.314C19.7097 5.386 19.7017 5.476 19.6857 5.584C19.6697 5.688 19.6437 5.788 19.6077 5.884H16.7637C16.6717 5.884 16.5557 5.884 16.4157 5.884C16.2757 5.884 16.1297 5.884 15.9777 5.884C15.8297 5.88 15.6957 5.876 15.5757 5.872V4.804H19.6677ZM19.9017 11.926C19.9017 12.314 19.8417 12.592 19.7217 12.76C19.6017 12.928 19.3797 13.012 19.0557 13.012H15.5757V11.98C15.7677 11.968 15.9577 11.956 16.1457 11.944C16.3337 11.932 16.5517 11.926 16.7997 11.926H19.9017ZM17.8077 2.344L19.1517 3.616C19.1077 3.752 19.0297 3.868 18.9177 3.964C18.8057 4.06 18.7037 4.124 18.6117 4.156L17.2617 3.256L15.9177 4.156C15.8217 4.124 15.7177 4.06 15.6057 3.964C15.4937 3.868 15.4137 3.752 15.3657 3.616L16.7157 2.344C16.8797 2.312 17.0617 2.296 17.2617 2.296C17.4617 2.296 17.6437 2.312 17.8077 2.344ZM21.5626 4.816C21.6626 4.796 21.7906 4.782 21.9466 4.774C22.1026 4.762 22.2286 4.756 22.3246 4.756C22.4246 4.756 22.5446 4.76 22.6846 4.768C22.8246 4.776 22.9586 4.788 23.0866 4.804L22.7506 6.292L22.6546 6.31C22.6706 6.59 22.6846 6.902 22.6966 7.246C22.7126 7.586 22.7246 7.932 22.7326 8.284C22.7446 8.632 22.7506 8.954 22.7506 9.25V13C22.6426 13.016 22.5386 13.028 22.4386 13.036C22.3386 13.044 22.2466 13.048 22.1626 13.048C22.0826 13.048 21.9866 13.044 21.8746 13.036C21.7666 13.028 21.6626 13.016 21.5626 13V4.816ZM23.4586 7.966C23.3146 7.67 23.1786 7.382 23.0506 7.102C22.9226 6.822 22.8026 6.554 22.6906 6.298L22.0906 5.578L23.0866 4.804L25.6246 9.832C25.7766 10.148 25.9186 10.456 26.0506 10.756C26.1866 11.052 26.3126 11.322 26.4286 11.566L27.0586 12.232L26.0146 13L23.4586 7.966ZM27.5446 4.822V12.988C27.4446 13.008 27.3206 13.022 27.1726 13.03C27.0246 13.042 26.8926 13.048 26.7766 13.048C26.6566 13.048 26.5306 13.044 26.3986 13.036C26.2666 13.028 26.1386 13.016 26.0146 13L26.3626 11.572L26.4646 11.56C26.4446 11.24 26.4266 10.9 26.4106 10.54C26.3986 10.176 26.3886 9.82 26.3806 9.472C26.3726 9.124 26.3686 8.812 26.3686 8.536V5.548C26.3686 5.268 26.4166 5.066 26.5126 4.942C26.6126 4.818 26.7926 4.756 27.0526 4.756H27.4726L27.5446 4.822ZM34.3055 9.316C34.2655 9.316 34.1995 9.316 34.1075 9.316C34.0155 9.312 33.9215 9.31 33.8255 9.31C33.7295 9.306 33.6615 9.304 33.6215 9.304C33.5015 9.304 33.3755 9.306 33.2435 9.31C33.1155 9.314 32.9895 9.316 32.8655 9.316V8.218C32.9895 8.218 33.1155 8.22 33.2435 8.224C33.3755 8.228 33.5015 8.23 33.6215 8.23C33.6615 8.23 33.7295 8.23 33.8255 8.23C33.9215 8.226 34.0155 8.224 34.1075 8.224C34.1995 8.22 34.2655 8.218 34.3055 8.218H36.3275C36.3675 8.218 36.4335 8.22 36.5255 8.224C36.6215 8.224 36.7155 8.226 36.8075 8.23C36.9035 8.23 36.9715 8.23 37.0115 8.23C37.1355 8.23 37.2615 8.228 37.3895 8.224C37.5175 8.22 37.6435 8.218 37.7675 8.218V9.316C37.6435 9.316 37.5175 9.314 37.3895 9.31C37.2615 9.306 37.1355 9.304 37.0115 9.304C36.9715 9.304 36.9035 9.306 36.8075 9.31C36.7155 9.31 36.6215 9.312 36.5255 9.316C36.4335 9.316 36.3675 9.316 36.3275 9.316H34.3055ZM33.6335 13C33.5375 13.016 33.4315 13.028 33.3155 13.036C33.1995 13.044 33.0895 13.048 32.9855 13.048C32.8935 13.048 32.7895 13.044 32.6735 13.036C32.5575 13.028 32.4515 13.016 32.3555 13V4.804C32.4515 4.788 32.5575 4.776 32.6735 4.768C32.7895 4.76 32.8935 4.756 32.9855 4.756C33.0895 4.756 33.1995 4.76 33.3155 4.768C33.4315 4.776 33.5375 4.788 33.6335 4.804V7.342C33.6335 7.51 33.6315 7.66 33.6275 7.792C33.6235 7.924 33.6215 8.07 33.6215 8.23V9.304C33.6215 9.464 33.6235 9.61 33.6275 9.742C33.6315 9.874 33.6335 10.024 33.6335 10.192V13ZM36.9995 10.192C36.9995 10.024 37.0015 9.874 37.0055 9.742C37.0095 9.61 37.0115 9.464 37.0115 9.304V8.23C37.0115 8.07 37.0095 7.924 37.0055 7.792C37.0015 7.66 36.9995 7.51 36.9995 7.342V4.804C37.0955 4.788 37.1995 4.776 37.3115 4.768C37.4275 4.76 37.5335 4.756 37.6295 4.756C37.7255 4.756 37.8315 4.76 37.9475 4.768C38.0675 4.776 38.1775 4.788 38.2775 4.804V13C38.1735 13.016 38.0655 13.028 37.9535 13.036C37.8455 13.044 37.7395 13.048 37.6355 13.048C37.5355 13.048 37.4275 13.044 37.3115 13.036C37.1995 13.028 37.0955 13.016 36.9995 13V10.192ZM40.4472 4.882L40.5252 4.804H41.6952V5.854C41.6952 6.022 41.6972 6.16 41.7012 6.268C41.7052 6.372 41.7072 6.506 41.7072 6.67V11.344C41.7072 11.452 41.7052 11.552 41.7012 11.644C41.6972 11.736 41.6952 11.838 41.6952 11.95V13.012H41.1792C40.9552 13.012 40.7772 12.942 40.6452 12.802C40.5132 12.662 40.4472 12.468 40.4472 12.22V4.882ZM44.7072 8.332C44.7272 8.416 44.7412 8.508 44.7492 8.608C44.7612 8.708 44.7672 8.792 44.7672 8.86C44.7672 8.932 44.7612 9.018 44.7492 9.118C44.7412 9.214 44.7272 9.306 44.7072 9.394H42.4512C42.3592 9.394 42.2432 9.394 42.1032 9.394C41.9632 9.39 41.8172 9.388 41.6652 9.388C41.5172 9.384 41.3832 9.38 41.2632 9.376V8.344C41.3832 8.344 41.5172 8.344 41.6652 8.344C41.8172 8.34 41.9632 8.338 42.1032 8.338C42.2432 8.334 42.3592 8.332 42.4512 8.332H44.7072ZM45.3552 4.804C45.3752 4.9 45.3872 4.992 45.3912 5.08C45.3952 5.164 45.3972 5.242 45.3972 5.314C45.3972 5.386 45.3892 5.476 45.3732 5.584C45.3572 5.688 45.3312 5.788 45.2952 5.884H42.4512C42.3592 5.884 42.2432 5.884 42.1032 5.884C41.9632 5.884 41.8172 5.884 41.6652 5.884C41.5172 5.88 41.3832 5.876 41.2632 5.872V4.804H45.3552ZM45.5892 11.926C45.5892 12.314 45.5292 12.592 45.4092 12.76C45.2892 12.928 45.0672 13.012 44.7432 13.012H41.2632V11.98C41.4552 11.968 41.6452 11.956 41.8332 11.944C42.0212 11.932 42.2392 11.926 42.4872 11.926H45.5892ZM42.2952 14.404C42.2952 14.2 42.3312 14.02 42.4032 13.864C42.4712 13.824 42.5692 13.79 42.6972 13.762C42.8252 13.738 42.9472 13.726 43.0632 13.726C43.1752 13.726 43.2972 13.738 43.4292 13.762C43.5652 13.79 43.6632 13.824 43.7232 13.864C43.7952 14.02 43.8312 14.2 43.8312 14.404C43.8312 14.488 43.8212 14.58 43.8012 14.68C43.7852 14.78 43.7592 14.866 43.7232 14.938C43.6592 14.982 43.5612 15.018 43.4292 15.046C43.2972 15.074 43.1752 15.088 43.0632 15.088C42.9472 15.088 42.8252 15.074 42.6972 15.046C42.5732 15.018 42.4752 14.982 42.4032 14.938C42.3312 14.786 42.2952 14.608 42.2952 14.404ZM43.4952 2.344L44.8392 3.616C44.7952 3.752 44.7172 3.868 44.6052 3.964C44.4932 4.06 44.3912 4.124 44.2992 4.156L42.9492 3.256L41.6052 4.156C41.5092 4.124 41.4052 4.06 41.2932 3.964C41.1812 3.868 41.1012 3.752 41.0532 3.616L42.4032 2.344C42.5672 2.312 42.7492 2.296 42.9492 2.296C43.1492 2.296 43.3312 2.312 43.4952 2.344ZM54.3268 7.636C54.3268 7.336 54.2768 7.036 54.1768 6.736C54.0808 6.432 53.9108 6.182 53.6668 5.986C53.4228 5.786 53.0848 5.686 52.6528 5.686C52.0208 5.686 51.5428 5.962 51.2188 6.514C50.8988 7.066 50.7388 7.876 50.7388 8.944C50.7388 9.936 50.9148 10.7 51.2668 11.236C51.6188 11.772 52.1048 12.04 52.7248 12.04C53.0968 12.04 53.4608 11.962 53.8168 11.806C54.1728 11.646 54.5228 11.42 54.8668 11.128C55.0068 11.22 55.1388 11.344 55.2628 11.5C55.3868 11.656 55.4688 11.808 55.5088 11.956C55.2848 12.176 55.0188 12.378 54.7108 12.562C54.4028 12.742 54.0608 12.886 53.6848 12.994C53.3128 13.102 52.9208 13.156 52.5088 13.156C51.9368 13.156 51.4508 13.038 51.0508 12.802C50.6548 12.566 50.3348 12.248 50.0908 11.848C49.8468 11.444 49.6688 10.992 49.5568 10.492C49.4488 9.988 49.3948 9.47 49.3948 8.938C49.3948 7.946 49.5448 7.134 49.8448 6.502C50.1488 5.866 50.5488 5.398 51.0448 5.098C51.5448 4.798 52.0908 4.648 52.6828 4.648C53.2748 4.648 53.7868 4.758 54.2188 4.978C54.6508 5.198 54.9848 5.486 55.2208 5.842C55.4568 6.198 55.5748 6.58 55.5748 6.988C55.5748 7.204 55.5188 7.38 55.4068 7.516C55.2948 7.648 55.1088 7.714 54.8488 7.714C54.7528 7.714 54.6648 7.708 54.5848 7.696C54.5088 7.68 54.4228 7.66 54.3268 7.636ZM57.8929 8.896C57.8929 9.26 57.9189 9.632 57.9709 10.012C58.0269 10.388 58.1269 10.738 58.2709 11.062C58.4149 11.382 58.6189 11.642 58.8829 11.842C59.1469 12.038 59.4889 12.136 59.9089 12.136C60.3249 12.136 60.6649 12.038 60.9289 11.842C61.1929 11.642 61.3949 11.382 61.5349 11.062C61.6789 10.738 61.7769 10.388 61.8289 10.012C61.8849 9.632 61.9129 9.26 61.9129 8.896C61.9129 8.532 61.8849 8.162 61.8289 7.786C61.7769 7.406 61.6789 7.056 61.5349 6.736C61.3949 6.416 61.1929 6.158 60.9289 5.962C60.6649 5.766 60.3249 5.668 59.9089 5.668C59.4889 5.668 59.1469 5.766 58.8829 5.962C58.6189 6.158 58.4149 6.416 58.2709 6.736C58.1269 7.056 58.0269 7.406 57.9709 7.786C57.9189 8.162 57.8929 8.532 57.8929 8.896ZM56.5549 8.896C56.5549 8.088 56.6749 7.364 56.9149 6.724C57.1589 6.084 57.5289 5.578 58.0249 5.206C58.5209 4.834 59.1489 4.648 59.9089 4.648C60.4809 4.648 60.9769 4.756 61.3969 4.972C61.8169 5.184 62.1649 5.484 62.4409 5.872C62.7169 6.256 62.9229 6.706 63.0589 7.222C63.1949 7.734 63.2629 8.292 63.2629 8.896C63.2629 9.708 63.1409 10.436 62.8969 11.08C62.6529 11.72 62.2829 12.226 61.7869 12.598C61.2949 12.97 60.6689 13.156 59.9089 13.156C59.3329 13.156 58.8349 13.05 58.4149 12.838C57.9949 12.622 57.6469 12.32 57.3709 11.932C57.0949 11.544 56.8889 11.092 56.7529 10.576C56.6209 10.06 56.5549 9.5 56.5549 8.896ZM60.4489 2.344L61.7929 3.616C61.7489 3.752 61.6709 3.868 61.5589 3.964C61.4469 4.06 61.3449 4.124 61.2529 4.156L59.9029 3.256L58.5589 4.156C58.4629 4.124 58.3589 4.06 58.2469 3.964C58.1349 3.868 58.0549 3.752 58.0069 3.616L59.3569 2.344C59.5209 2.312 59.7029 2.296 59.9029 2.296C60.1029 2.296 60.2849 2.312 60.4489 2.344ZM73.6661 8.902C73.6661 9.37 73.6341 9.82 73.5701 10.252C73.5101 10.68 73.3881 11.08 73.2041 11.452C73.0241 11.82 72.7541 12.152 72.3941 12.448C72.2181 12.592 72.0061 12.71 71.7581 12.802C71.5141 12.89 71.2621 12.954 71.0021 12.994C70.7461 13.034 70.5121 13.054 70.3001 13.054C69.9761 13.054 69.6801 13.052 69.4121 13.048C69.1441 13.044 68.8721 13.038 68.5961 13.03C68.3201 13.022 68.0081 13.014 67.6601 13.006L67.5821 12.934V4.87L67.6601 4.798C68.0041 4.786 68.3141 4.778 68.5901 4.774C68.8661 4.766 69.1381 4.762 69.4061 4.762C69.6781 4.758 69.9761 4.756 70.3001 4.756C70.5121 4.756 70.7461 4.778 71.0021 4.822C71.2621 4.862 71.5161 4.928 71.7641 5.02C72.0121 5.108 72.2221 5.224 72.3941 5.368C72.7501 5.664 73.0181 5.998 73.1981 6.37C73.3821 6.738 73.5061 7.136 73.5701 7.564C73.6341 7.992 73.6661 8.438 73.6661 8.902ZM72.3341 8.902C72.3341 8.546 72.3101 8.184 72.2621 7.816C72.2141 7.448 72.1201 7.112 71.9801 6.808C71.8441 6.5 71.6401 6.254 71.3681 6.07C71.0961 5.882 70.7381 5.788 70.2941 5.788C70.0421 5.788 69.8081 5.786 69.5921 5.782C69.3761 5.778 69.1321 5.776 68.8601 5.776V12.022C69.1321 12.018 69.3761 12.018 69.5921 12.022C69.8081 12.026 70.0421 12.028 70.2941 12.028C70.7381 12.028 71.0961 11.934 71.3681 11.746C71.6401 11.558 71.8441 11.31 71.9801 11.002C72.1201 10.694 72.2141 10.356 72.2621 9.988C72.3101 9.62 72.3341 9.258 72.3341 8.902ZM77.071 4.804C77.171 4.788 77.293 4.776 77.437 4.768C77.581 4.76 77.707 4.756 77.815 4.756C77.915 4.756 78.037 4.76 78.181 4.768C78.325 4.776 78.441 4.79 78.529 4.81L81.223 12.922C81.131 12.978 81.017 13.018 80.881 13.042C80.749 13.07 80.615 13.084 80.479 13.084C80.275 13.084 80.117 13.038 80.005 12.946C79.897 12.854 79.801 12.674 79.717 12.406L78.397 8.236C78.285 7.888 78.171 7.518 78.055 7.126C77.943 6.734 77.845 6.38 77.761 6.064H77.701C77.661 6.244 77.611 6.442 77.551 6.658C77.495 6.87 77.439 7.078 77.383 7.282C77.327 7.482 77.277 7.654 77.233 7.798L75.577 13.012C75.497 13.028 75.409 13.04 75.313 13.048C75.217 13.056 75.121 13.06 75.025 13.06C74.913 13.06 74.803 13.052 74.695 13.036C74.587 13.02 74.489 13 74.401 12.976L74.365 12.91L77.071 4.804ZM76.909 11.02C76.873 11.02 76.797 11.02 76.681 11.02C76.569 11.016 76.455 11.014 76.339 11.014C76.223 11.01 76.147 11.008 76.111 11.008H75.517L75.913 9.97H76.435C76.475 9.97 76.545 9.97 76.645 9.97C76.745 9.966 76.845 9.964 76.945 9.964C77.045 9.96 77.115 9.958 77.155 9.958H78.349C78.385 9.958 78.453 9.96 78.553 9.964C78.657 9.964 78.761 9.966 78.865 9.97C78.973 9.97 79.045 9.97 79.081 9.97H79.621L79.963 11.008H79.369C79.329 11.008 79.249 11.01 79.129 11.014C79.013 11.014 78.897 11.016 78.781 11.02C78.669 11.02 78.595 11.02 78.559 11.02H76.909ZM78.343 2.344L79.687 3.616C79.643 3.752 79.565 3.868 79.453 3.964C79.341 4.06 79.239 4.124 79.147 4.156L77.797 3.256L76.453 4.156C76.357 4.124 76.253 4.06 76.141 3.964C76.029 3.868 75.949 3.752 75.901 3.616L77.251 2.344C77.415 2.312 77.597 2.296 77.797 2.296C77.997 2.296 78.179 2.312 78.343 2.344ZM88.294 10.12C88.294 10.784 88.168 11.342 87.916 11.794C87.668 12.242 87.316 12.582 86.86 12.814C86.404 13.042 85.87 13.156 85.258 13.156C84.646 13.156 84.114 13.042 83.662 12.814C83.21 12.582 82.858 12.242 82.606 11.794C82.358 11.342 82.234 10.784 82.234 10.12V4.828L82.306 4.756H82.798C83.058 4.756 83.242 4.822 83.35 4.954C83.458 5.086 83.512 5.29 83.512 5.566V10.12C83.512 10.776 83.66 11.274 83.956 11.614C84.252 11.954 84.686 12.124 85.258 12.124C85.838 12.124 86.276 11.954 86.572 11.614C86.868 11.274 87.016 10.776 87.016 10.12V4.804C87.108 4.788 87.21 4.776 87.322 4.768C87.438 4.76 87.544 4.756 87.64 4.756C87.736 4.756 87.844 4.76 87.964 4.768C88.088 4.776 88.198 4.788 88.294 4.804V10.12Z" fill="#3F3F3F"/>
<defs>
<clipPath id="clip0_3822_9800">
<rect width="20" height="20" fill="white" transform="translate(37 27)"/>
</clipPath>
</defs>
</svg>
