<svg width="156" height="132" viewBox="0 0 156 132" fill="none" xmlns="http://www.w3.org/2000/svg">
<path d="M73.7 80.1C71.8333 80.1 70.4 79.3667 69.4 77.9C68.4 76.4333 67.9 74.7 67.9 72.7C67.9 68.8333 69.6667 63.5667 73.2 56.9C70.7333 57.1 68.2667 57.2 65.8 57.2C64 57.2 60.6 57.1 55.6 56.9L42.8 56.5C38.1333 63.9667 34.3333 70.7667 31.4 76.9C30.5333 78.7 29.3667 79.6 27.9 79.6C26.9 79.6 26.4 79.1333 26.4 78.2C26.4 77.5333 26.6 76.8 27 76C28.1333 73.5333 29.6 70.6667 31.4 67.4C33.2667 64.1333 35.4333 60.4667 37.9 56.4C32.4333 56.4 28.8 56.6333 27 57.1C24 57.8333 21.7667 59.3333 20.3 61.6C19.7667 62.3333 19.3333 62.7333 19 62.8C18.6 62.8667 18.4 62.7 18.4 62.3C18.4 61.9667 18.5333 61.6667 18.8 61.4C21.3333 58 23.9 55.6333 26.5 54.3C29.1667 52.9 33.8 52.3 40.4 52.5C44.5333 46.3 50.2333 37.1 57.5 24.9C60.2333 19.7667 61.6 15.6 61.6 12.4C61.6 7.2 58.1 4.6 51.1 4.6C42.5667 4.6 34.6333 6.83333 27.3 11.3C23.4333 13.7 19.8 16.7333 16.4 20.4C13 24 10.2667 27.8667 8.2 32C6.13333 36.0667 5.1 40.0667 5.1 44C5.1 50.2 8 53.3 13.8 53.3C16.4 53.3 18.7 52.7 20.7 51.5C22.7 50.2333 24.4667 48.6333 26 46.7C29 42.9667 30.5 39.2667 30.5 35.6C30.5 33.5333 29.9667 31.8333 28.9 30.5C28.7667 30.3667 28.7 30.2 28.7 30C28.7 29.5333 28.9667 29.3 29.5 29.3C29.8333 29.3 30.0333 29.4 30.1 29.6C31.4333 31.3333 32.1 33.4 32.1 35.8C32.1 39.8667 30.4333 44.0333 27.1 48.3C25.0333 50.8333 22.9 52.7 20.7 53.9C18.5667 55.0333 16.1 55.6 13.3 55.6C9.1 55.6 5.83333 54.3 3.5 51.7C1.16667 49.0333 0 45.6333 0 41.5C0 35.9 1.66667 30.6 5 25.6C8.4 20.6 12.6667 16.3 17.8 12.7C27.9333 5.56667 39.2333 2.16667 51.7 2.5C54.3667 2.56666 56.8667 3.06666 59.2 4C61.5333 4.86666 63.4 6.16666 64.8 7.9C66.2667 9.56666 67 11.6667 67 14.2C67 17.4 65.7667 20.9667 63.3 24.9L45.2 52.7C46.5333 52.7667 48.2667 52.9 50.4 53.1C52.5333 53.2333 55.0667 53.4667 58 53.8C60.4667 54.0667 62.5333 54.2667 64.2 54.4C65.8667 54.4667 67.1333 54.5 68 54.5C69.5333 54.5 70.8333 54.5 71.9 54.5C73.0333 54.5 73.9333 54.4667 74.6 54.4L78.4 48.1C81.7333 42.5667 85.2 37.3333 88.8 32.4C92.4667 27.4 96.2667 22.7 100.2 18.3C109.133 8.43333 116.767 2.36666 123.1 0.0999994C123.3 0.0333336 123.533 0 123.8 0C124.2 0 124.4 0.266666 124.4 0.799996C124.4 0.999998 124.3 1.16666 124.1 1.3C122.033 2.43333 119.5 4.43333 116.5 7.3C113.567 10.1 110.133 13.7667 106.2 18.3C97.9333 27.8333 90.9 37.4667 85.1 47.2L81.2 53.8C84.2667 53.4 86.4667 52.6333 87.8 51.5C88.0667 51.3 88.3 51.4 88.5 51.8C88.7 52.2667 88.6667 52.6 88.4 52.8C86.4 54.3333 83.5667 55.4333 79.9 56.1C75.2333 64.7667 72.9 70.8667 72.9 74.4C72.9 76.6667 73.8667 77.8 75.8 77.8C77.1333 77.8 91.4004 77.9 93.4004 76.6001C97.9004 75.6001 105.301 70.0001 105.801 68.5001C107.801 63.0001 101.9 67.6001 102.4 64.6001C102.4 64.6001 103.9 64.0001 106.301 64.0001C109.801 64.0001 108.301 67.5001 107.301 69.0001C105.4 71.6001 101.234 74.2 99.9004 75C98.5671 75.8 94.9004 77.2 92.4004 77.9C91.0004 78.4333 75 80.1 73.7 80.1Z" fill="black"/>
<path d="M124.1 131.4C120.367 131.4 116.534 130.833 112.6 129.7C108.667 128.633 104.934 127.033 101.4 124.9C97.9337 122.767 94.9337 120.233 92.4004 117.3C87.0671 122.633 82.0004 125.3 77.2004 125.3C74.7337 125.3 72.9004 124.567 71.7004 123.1C70.5004 121.7 69.9004 119.867 69.9004 117.6C69.9004 113.4 71.5004 108.467 74.7004 102.8C77.7004 97.4668 80.1004 94.6668 81.9004 94.4001C83.2337 94.4001 84.6004 95.7668 86.0004 98.5001L92.3004 110.7C95.8337 105.967 99.5337 100.867 103.4 95.4001C97.9337 92.9334 87.5322 77.1274 86.4004 72.6001C85.9004 70.6001 85.6671 68.5668 86.6004 66.9001C87.6004 65.1668 88.8671 63.7668 90.4004 62.7001C91.9337 61.6334 93.5004 61.1001 95.1004 61.1001C97.3004 61.1001 98.9004 62.1334 99.9004 64.2001C100.034 64.4001 100.034 64.6001 99.9004 64.8001C99.8337 65.0001 99.7337 65.0668 99.6004 65.0001C99.1337 64.4668 98.4671 64.0001 97.6004 63.6001C96.7337 63.2001 95.9337 63.0001 95.2004 63.0001C93.8004 63.0001 92.5004 63.5668 91.3004 64.7001C90.1671 65.7668 89.2671 67.0334 88.6004 68.5001C88.0004 69.9668 87.9004 71.1001 88.4004 72.1001C88.4004 75.5001 100.3 91.0668 105.1 93.6001C106.234 91.9334 107.467 90.1334 108.8 88.2001C110.134 86.2001 111.567 84.0668 113.1 81.8001C126.367 62.3334 137.4 52.6001 146.2 52.6001C152.4 52.6001 155.5 55.5001 155.5 61.3001C155.5 66.5668 152.934 72.7668 147.8 79.9001C145.267 83.4334 142.067 86.6001 138.2 89.4001C134.334 92.2001 130.234 94.4334 125.9 96.1001C121.634 97.7001 117.5 98.5001 113.5 98.5001C112.567 98.5001 111.634 98.4668 110.7 98.4001C109.834 98.2668 109.034 98.0668 108.3 97.8001C106.567 100.067 104.567 102.6 102.3 105.4C100.034 108.2 97.5337 111.3 94.8004 114.7C96.0004 116.367 97.7004 118.033 99.9004 119.7C102.167 121.367 104.7 122.833 107.5 124.1C110.3 125.433 113.067 126.5 115.8 127.3C118.534 128.1 121 128.5 123.2 128.5C125.734 128.5 128.067 128.2 130.2 127.6C132.334 127.067 134.067 126.167 135.4 124.9C136.734 123.7 137.4 122.1 137.4 120.1C137.4 119.833 137.4 119.567 137.4 119.3C137.4 119.033 137.367 118.767 137.3 118.5C137.3 118.367 137.267 118.267 137.2 118.2C137.2 118.133 137.2 118.067 137.2 118C137.2 117.333 137.4 117 137.8 117C138.467 117 139 117.533 139.4 118.6C139.8 119.6 140 120.4 140 121C140 123.067 139.2 124.867 137.6 126.4C136 128 133.967 129.233 131.5 130.1C129.1 130.967 126.634 131.4 124.1 131.4ZM112.8 95.9001C116.2 95.9001 119.834 95.1334 123.7 93.6001C127.567 92.0001 131.2 89.9334 134.6 87.4001C138.067 84.8001 140.867 82.0001 143 79.0001C149.067 70.5334 152.1 64.1001 152.1 59.7001C152.1 57.8334 151.567 56.4668 150.5 55.6001C149.434 54.7334 148.134 54.3001 146.6 54.3001C143.267 54.3001 139.134 57.1001 134.2 62.7001C132.667 64.5001 130.634 67.1001 128.1 70.5001C125.634 73.8334 122.7 77.9668 119.3 82.9001C117.967 84.8334 116.5 86.8668 114.9 89.0001C113.3 91.1334 111.634 93.3334 109.9 95.6001C110.834 95.8001 111.8 95.9001 112.8 95.9001ZM77.4004 122.6C78.6671 122.6 80.0671 122.133 81.6004 121.2C83.2004 120.333 84.7337 119.233 86.2004 117.9C87.6671 116.567 88.8671 115.267 89.8004 114C88.8671 112.667 87.8671 111.067 86.8004 109.2C85.7337 107.333 84.5671 105.167 83.3004 102.7C81.7671 99.5001 80.6004 98.0668 79.8004 98.4001C78.6004 98.6001 77.3004 100.733 75.9004 104.8C74.5004 108.867 73.8004 112.667 73.8004 116.2C73.8004 120.467 75.0004 122.6 77.4004 122.6Z" fill="black"/>
</svg>
